<svg width="1440" height="93" viewBox="0 0 1440 93" fill="none" xmlns="http://www.w3.org/2000/svg">
<mask id="path-1-inside-1_0_879" fill="white">
<path d="M0 0.5H1440V92.5H0V0.5Z"/>
</mask>
<path d="M1440 91.5H0V93.5H1440V91.5Z" fill="#D9DADC" mask="url(#path-1-inside-1_0_879)"/>
<g clip-path="url(#clip0_0_879)">
<path d="M682.629 45.0048C675.718 40.7937 664.314 40.405 657.714 42.4602C657.333 42.5779 656.925 42.5773 656.544 42.4585C656.163 42.3397 655.827 42.1082 655.58 41.7947C655.328 41.4783 655.174 41.0956 655.135 40.6931C655.096 40.2906 655.175 39.8854 655.362 39.5268C655.612 39.0465 656.04 38.6835 656.55 38.5222C664.125 36.1627 676.717 36.6192 684.677 41.4647C684.962 41.6421 685.2 41.8857 685.371 42.1748C685.542 42.4638 685.64 42.7899 685.658 43.1251C685.676 43.4604 685.612 43.795 685.473 44.1005C685.334 44.4061 685.123 44.6735 684.859 44.8802C684.649 45.0415 684.409 45.1591 684.153 45.2262C683.897 45.2933 683.63 45.3084 683.368 45.2707C683.108 45.234 682.855 45.1423 682.629 45.0048ZM682.402 51.2418C682.289 51.4318 682.14 51.5977 681.963 51.7298C681.786 51.862 681.584 51.9578 681.37 52.0118C681.156 52.0643 680.934 52.0732 680.716 52.0379C680.499 52.0027 680.291 51.9239 680.105 51.8065C674.341 48.171 665.554 47.1187 658.734 49.2435C658.416 49.3418 658.075 49.3413 657.757 49.2421C657.44 49.1429 657.159 48.9497 656.954 48.688C656.745 48.4241 656.617 48.1054 656.585 47.7704C656.553 47.4353 656.619 47.0982 656.774 46.7997C656.98 46.4001 657.336 46.0982 657.764 45.96C665.552 43.5345 675.236 44.7097 681.854 48.8842C682.233 49.1291 682.503 49.5119 682.605 49.9518C682.708 50.3917 682.634 50.8542 682.402 51.2418ZM679.78 57.2313C679.691 57.3841 679.572 57.5175 679.43 57.6239C679.288 57.7302 679.127 57.8074 678.955 57.851C678.784 57.8938 678.606 57.9013 678.432 57.8733C678.257 57.8453 678.091 57.7822 677.942 57.6878C672.904 54.5308 666.568 53.8177 659.102 55.5685C658.842 55.6289 658.571 55.609 658.322 55.5114C658.074 55.4139 657.862 55.2433 657.713 55.0222C657.611 54.8755 657.54 54.7105 657.502 54.5363C657.421 54.1834 657.482 53.8131 657.67 53.5042C657.763 53.3523 657.885 53.2201 658.028 53.1154C658.172 53.0106 658.335 52.9353 658.508 52.8937C666.676 50.9778 673.683 51.8028 679.337 55.3467C679.639 55.5429 679.855 55.8488 679.937 56.2001C680.019 56.5514 679.964 56.9209 679.78 57.2313ZM669.943 25.5C658.101 25.5 648.5 35.3505 648.5 47.5C648.5 59.6513 658.099 69.5 669.944 69.5C681.788 69.5 691.391 59.6513 691.391 47.5C691.391 35.3505 681.788 25.5 669.943 25.5ZM706.84 45.8097C703.139 44.904 702.479 44.2697 702.479 42.9313C702.479 41.67 703.639 40.8212 705.361 40.8212C707.029 40.8212 708.687 41.4665 710.421 42.7938C710.447 42.8134 710.476 42.8276 710.508 42.8355C710.539 42.8433 710.572 42.8448 710.604 42.8396C710.636 42.8345 710.667 42.8229 710.694 42.8056C710.722 42.7882 710.745 42.7655 710.764 42.7388L712.573 40.1245C712.609 40.0724 712.624 40.0088 712.616 39.9461C712.607 39.8834 712.576 39.8261 712.527 39.7853C710.461 38.084 708.135 37.259 705.414 37.259C701.417 37.259 698.625 39.7193 698.625 43.2412C698.625 47.0178 701.036 48.3525 705.198 49.3865C708.74 50.2243 709.337 50.9265 709.337 52.1805C709.337 53.5683 708.129 54.4337 706.184 54.4337C704.021 54.4337 702.259 53.6857 700.288 51.933C700.264 51.9115 700.236 51.8951 700.205 51.8849C700.174 51.8747 700.142 51.8708 700.109 51.8736C700.077 51.8763 700.046 51.8856 700.017 51.9009C699.989 51.9161 699.964 51.937 699.943 51.9623L697.916 54.4373C697.875 54.4869 697.854 54.5503 697.859 54.6144C697.863 54.6785 697.892 54.7385 697.939 54.782C700.235 56.8848 703.055 57.994 706.1 57.994C710.408 57.994 713.193 55.5795 713.193 51.8413C713.193 48.6825 711.354 46.9353 706.84 45.8097ZM726.066 50.0447C726.066 52.7103 724.464 54.573 722.171 54.573C719.907 54.573 718.194 52.6278 718.194 50.0447C718.194 47.4597 719.905 45.5163 722.173 45.5163C724.428 45.5163 726.066 47.4193 726.066 50.0447ZM722.939 42.0623C721.073 42.0623 719.54 42.8177 718.277 44.365V42.6233C718.277 42.5584 718.252 42.4959 718.207 42.4492C718.185 42.4263 718.158 42.4081 718.129 42.3955C718.1 42.3829 718.068 42.3762 718.037 42.3758H714.718C714.686 42.3761 714.655 42.3828 714.626 42.3954C714.596 42.408 714.57 42.4262 714.548 42.4492C714.502 42.4961 714.476 42.5594 714.476 42.6252V61.9595C714.476 62.0988 714.586 62.2107 714.72 62.2107H718.037C718.068 62.21 718.1 62.2031 718.129 62.1902C718.159 62.1772 718.185 62.1587 718.207 62.1355C718.252 62.0883 718.277 62.025 718.277 61.9595V55.8563C719.542 57.312 721.073 58.0197 722.939 58.0197C726.409 58.0197 729.92 55.2807 729.92 50.0447C729.92 44.805 726.409 42.0623 722.939 42.0623ZM738.926 54.6005C736.548 54.6005 734.757 52.6425 734.757 50.0428C734.757 47.4358 736.485 45.542 738.87 45.542C741.263 45.542 743.065 47.5018 743.065 50.1015C743.065 52.7085 741.325 54.6005 738.926 54.6005ZM738.926 42.0642C734.456 42.0642 730.956 45.5952 730.956 50.0997C730.956 54.5583 734.432 58.0527 738.87 58.0527C743.353 58.0527 746.864 54.5327 746.864 50.0428C746.864 45.5695 743.379 42.0642 738.926 42.0642ZM756.406 42.3758H752.758V38.5478C752.759 38.4992 752.745 38.4515 752.719 38.4104C752.693 38.3694 752.656 38.3368 752.611 38.3168C752.581 38.3042 752.549 38.298 752.516 38.2985H749.2C749.135 38.2995 749.074 38.3259 749.029 38.3718C748.984 38.4186 748.959 38.4811 748.959 38.546V42.3722H747.364C747.316 42.3724 747.268 42.3874 747.228 42.4153C747.188 42.4431 747.158 42.4824 747.141 42.528C747.129 42.5583 747.122 42.5907 747.122 42.6233V45.5475C747.122 45.6832 747.232 45.795 747.364 45.795H748.959V53.3593C748.959 56.4155 750.443 57.9665 753.367 57.9665C754.555 57.9665 755.541 57.7135 756.472 57.1708C756.51 57.149 756.541 57.1177 756.562 57.08C756.584 57.0424 756.595 56.9997 756.595 56.9563V54.1733C756.595 54.1313 756.584 54.09 756.564 54.0532C756.544 54.0164 756.515 53.9852 756.48 53.9625C756.445 53.9402 756.404 53.9275 756.363 53.9256C756.321 53.9236 756.28 53.9326 756.243 53.9515C755.603 54.2815 754.987 54.4337 754.298 54.4337C753.235 54.4337 752.758 53.9368 752.758 52.8277V45.795H756.406C756.439 45.795 756.47 45.7886 756.5 45.776C756.53 45.7634 756.556 45.7449 756.579 45.7217C756.625 45.6747 756.65 45.6115 756.65 45.5457V42.6215C756.65 42.5557 756.625 42.4925 756.579 42.4455C756.556 42.4224 756.529 42.4041 756.5 42.3915C756.47 42.3789 756.438 42.3723 756.406 42.3722V42.3758ZM769.119 42.3887V41.9212C769.119 40.537 769.634 39.9192 770.794 39.9192C771.484 39.9192 772.041 40.0603 772.662 40.2748C772.699 40.2865 772.737 40.2893 772.775 40.2829C772.813 40.2765 772.848 40.2612 772.879 40.2382C772.911 40.2151 772.937 40.1848 772.955 40.1498C772.972 40.1147 772.982 40.0759 772.982 40.0365V37.1692C772.982 37.1159 772.965 37.0639 772.934 37.0207C772.903 36.9774 772.86 36.9452 772.809 36.929C771.918 36.6509 770.989 36.5148 770.056 36.5257C766.994 36.5257 765.373 38.2948 765.373 41.637V42.3575H763.778C763.746 42.3579 763.715 42.3646 763.686 42.3772C763.656 42.3898 763.63 42.408 763.608 42.4308C763.562 42.4781 763.537 42.5413 763.538 42.6068V45.5457C763.538 45.6832 763.646 45.795 763.78 45.795H765.375V57.4623C765.375 57.5998 765.481 57.7098 765.615 57.7098H768.932C769.064 57.7098 769.172 57.5998 769.172 57.4623V45.795H772.27L777.011 57.4587C776.472 58.6852 775.942 58.929 775.22 58.929C774.635 58.929 774.021 58.7493 773.39 58.3973C773.361 58.3813 773.329 58.3714 773.296 58.3683C773.263 58.3651 773.229 58.3688 773.198 58.379C773.166 58.3902 773.137 58.4077 773.113 58.4304C773.088 58.453 773.069 58.4805 773.055 58.511L771.933 61.041C771.907 61.0977 771.903 61.1619 771.922 61.2212C771.941 61.2805 771.982 61.3306 772.036 61.3618C773.11 61.9883 774.334 62.3103 775.578 62.2932C778.023 62.2932 779.378 61.1235 780.572 57.9757L786.323 42.7278C786.337 42.69 786.342 42.6494 786.337 42.6093C786.333 42.5691 786.319 42.5306 786.297 42.4968C786.276 42.4636 786.246 42.4362 786.212 42.417C786.177 42.3978 786.139 42.3875 786.099 42.3868H782.647C782.595 42.3868 782.545 42.4031 782.504 42.4334C782.462 42.4637 782.431 42.5065 782.416 42.5555L778.881 52.9157L775.011 42.55C774.994 42.5031 774.963 42.4625 774.923 42.4336C774.882 42.4048 774.834 42.3891 774.784 42.3887H769.119ZM761.749 42.374H758.432C758.4 42.3746 758.369 42.3816 758.339 42.3945C758.31 42.4074 758.284 42.426 758.262 42.4492C758.216 42.4964 758.191 42.5596 758.192 42.6252V57.4642C758.192 57.6017 758.302 57.7117 758.434 57.7117H761.751C761.882 57.7117 761.991 57.6017 761.991 57.4642V42.6233C761.991 42.5578 761.966 42.4946 761.921 42.4473C761.899 42.4244 761.872 42.406 761.842 42.3935C761.813 42.3809 761.781 42.3743 761.749 42.374ZM760.106 35.6182C759.791 35.6207 759.481 35.6856 759.191 35.8093C758.902 35.933 758.64 36.1129 758.421 36.3387C757.976 36.797 757.726 37.413 757.73 38.0565C757.727 38.6979 757.975 39.315 758.421 39.7762C758.641 40.0014 758.903 40.181 759.193 40.3046C759.482 40.4282 759.793 40.4935 760.108 40.4967C760.742 40.493 761.349 40.2345 761.795 39.7762C762.24 39.3178 762.489 38.7 762.486 38.0565C762.486 36.709 761.421 35.6182 760.11 35.6182H760.106ZM789.289 43.8498H788.682V44.6455H789.289C789.592 44.6455 789.773 44.4933 789.773 44.2495C789.773 43.9892 789.592 43.8517 789.289 43.8517V43.8498ZM789.683 44.9847L790.343 45.9325H789.786L789.194 45.0635H788.682V45.9325H788.217V43.4208H789.307C789.876 43.4208 790.252 43.7197 790.252 44.2202C790.259 44.3935 790.207 44.5641 790.103 44.7033C790 44.8425 789.851 44.9419 789.683 44.9847ZM789.166 42.583C787.971 42.583 787.065 43.5583 787.065 44.7518C787.065 45.9435 787.964 46.906 789.153 46.906C790.349 46.906 791.256 45.9307 791.256 44.7372C791.256 43.5455 790.354 42.5848 789.166 42.5848V42.583ZM789.153 47.1443C788.844 47.144 788.538 47.0816 788.253 46.9606C787.968 46.8397 787.711 46.6627 787.496 46.4403C787.057 45.9897 786.814 45.3831 786.821 44.7537C786.821 43.4392 787.854 42.3447 789.166 42.3447C789.475 42.3452 789.781 42.4078 790.065 42.5287C790.35 42.6497 790.607 42.8265 790.822 43.0487C791.04 43.2718 791.212 43.5358 791.328 43.8256C791.444 44.1153 791.502 44.4251 791.498 44.7372C791.498 46.0517 790.466 47.1462 789.153 47.1462V47.1443Z" fill="black"/>
</g>
<defs>
<clipPath id="clip0_0_879">
<rect width="143" height="44" fill="white" transform="translate(648.5 25.5)"/>
</clipPath>
</defs>
</svg>
